<svg width="31" height="33" viewBox="0 0 31 33" fill="none" xmlns="http://www.w3.org/2000/svg">
<path d="M12.9122 14.9976C12.6713 15.1752 12.3615 15.2818 11.983 15.2818H9.84928V12.9727H11.8453C12.0518 12.9727 12.2239 12.9727 12.396 13.0082C12.568 13.0437 12.7057 13.1148 12.8433 13.1858C12.981 13.2924 13.0842 13.399 13.1531 13.5411C13.2219 13.6832 13.2563 13.8963 13.2563 14.1095C13.2563 14.5003 13.1531 14.82 12.9122 14.9976Z" fill="white"/>
<path d="M12.6713 19.4026C12.4992 19.4382 12.2927 19.4737 12.0862 19.4737H9.84928V16.7383H12.1206C12.568 16.7383 12.9466 16.8449 13.2219 17.058C13.4972 17.3067 13.6349 17.6619 13.6349 18.1593C13.6349 18.408 13.566 18.6211 13.4972 18.7987C13.394 18.9764 13.2907 19.0829 13.1531 19.1895C13.0154 19.2961 12.8433 19.3671 12.6713 19.4026Z" fill="white"/>
<path d="M19.8295 15.3173C20.2769 15.3173 20.6554 15.4594 20.8963 15.7081C21.1372 15.9568 21.3093 16.312 21.3781 16.8449H18.2808C18.2808 16.7272 18.3044 16.6094 18.3321 16.4715C18.3378 16.443 18.3437 16.4135 18.3496 16.3831C18.3841 16.2054 18.4529 16.0278 18.5905 15.8857C18.7282 15.7436 18.8659 15.6015 19.0724 15.4949C19.2788 15.3884 19.5197 15.3173 19.8295 15.3173Z" fill="white"/>
<path fill-rule="evenodd" clip-rule="evenodd" d="M4.84375 0.30304C2.16862 0.30304 0 2.54162 0 5.30304V27.303C0 30.0645 2.16862 32.303 4.84375 32.303H26.1562C28.8314 32.303 31 30.0645 31 27.303V5.30304C31 2.54162 28.8314 0.30304 26.1562 0.30304H4.84375ZM13.4972 11.4451C13.1187 11.3386 12.7057 11.303 12.2583 11.303H7.75V21.1078H12.3615C12.7745 21.1078 13.1875 21.0368 13.6005 20.9302C14.0134 20.8236 14.392 20.646 14.7017 20.4329C15.0114 20.2197 15.2868 19.9 15.4588 19.5447C15.6309 19.1895 15.7342 18.7632 15.7342 18.2659C15.7342 17.6619 15.5621 17.1291 15.2868 16.7028C15.0114 16.2765 14.5641 15.9568 13.979 15.7791C14.392 15.566 14.7361 15.2818 14.9426 14.9621C15.1835 14.6424 15.2868 14.2161 15.2868 13.7187C15.2868 13.2924 15.2179 12.9016 15.0803 12.5819C14.9426 12.2622 14.7361 12.0135 14.4608 11.8359C14.1855 11.6583 13.8758 11.5162 13.4972 11.4451ZM19.9671 19.8645C19.4165 19.8645 19.0035 19.7224 18.7282 19.4382C18.4529 19.154 18.2464 18.6211 18.2464 18.0527H23.2365C23.2709 17.4843 23.2365 16.987 23.1677 16.4896C23.03 15.9923 22.8235 15.5305 22.5482 15.1397C22.2729 14.7134 21.9288 14.4292 21.4814 14.1805C21.034 13.9319 20.5178 13.8253 19.9327 13.8253C19.3821 13.8253 18.9347 13.9319 18.4873 14.1095C18.0743 14.2871 17.6958 14.5713 17.386 14.891C17.0763 15.2463 16.8354 15.637 16.6633 16.0989C16.4913 16.5607 16.4224 17.058 16.4224 17.5909C16.4224 18.1593 16.4913 18.6566 16.6633 19.1184C16.801 19.5803 17.0419 19.971 17.3516 20.2908C17.6614 20.646 18.0055 20.8947 18.4529 21.0723C18.9003 21.2499 19.3821 21.3565 19.9327 21.3565C20.7242 21.3565 21.3781 21.1434 21.9288 20.7881C22.4794 20.3973 22.8924 19.7934 23.1677 18.9408H21.4814C21.4125 19.154 21.2405 19.3671 20.9651 19.5803C20.6898 19.7579 20.3457 19.8645 19.9671 19.8645ZM21.7223 11.978H17.8678V12.9372H21.7223V11.978Z" fill="white"/>
</svg>
