<svg width="32" height="32" viewBox="0 0 32 32" fill="none" xmlns="http://www.w3.org/2000/svg">
<path fill-rule="evenodd" clip-rule="evenodd" d="M0 5.14679C0 2.47166 2.23858 0.30304 5 0.30304H27C29.7614 0.30304 32 2.47166 32 5.14679V26.4593C32 29.1344 29.7614 31.303 27 31.303H5C2.23858 31.303 0 29.1344 0 26.4593V5.14679ZM8 15.9653C8 11.6993 11.5718 8.23904 15.9755 8.23904C20.3792 8.23904 23.951 11.6993 24 15.9653C24 19.3782 21.7492 22.2696 18.5688 23.3124C18.1774 23.3598 18.0306 23.1228 18.0306 22.9332V20.8002C18.0306 20.0892 17.7859 19.6152 17.4924 19.3782C19.2538 19.1886 21.1132 18.5724 21.1132 15.5861C21.1132 14.7329 20.7706 14.0219 20.2814 13.5005C20.2852 13.4856 20.2906 13.4669 20.297 13.4446C20.3719 13.1828 20.5892 12.4232 20.1835 11.4623C20.1835 11.4623 19.4985 11.2727 17.9816 12.2681C17.3456 12.1259 16.6605 12.0311 15.9755 12.0311C15.2905 12.0311 14.6055 12.0785 13.9694 12.2681C12.4526 11.2727 11.7676 11.4623 11.7676 11.4623C11.3351 12.4863 11.6105 13.2818 11.6669 13.4448L11.6697 13.4531C11.1315 14.0219 10.8379 14.6855 10.8379 15.5387C10.8379 18.525 12.6973 19.1886 14.4587 19.3782C14.263 19.5678 14.0184 19.8996 13.9694 20.421C13.5291 20.6106 12.4037 20.9424 11.6697 19.7574C11.6697 19.7574 11.2294 18.999 10.4465 18.9516C10.4465 18.9516 9.66364 18.9516 10.3976 19.4256C10.3976 19.4256 10.9358 19.6626 11.2783 20.5632C11.2783 20.5632 11.7676 22.08 13.9694 21.606V22.9332C13.9694 23.1228 13.8226 23.3598 13.4312 23.3124C10.2997 22.2696 8 19.3782 8 15.9653Z" fill="white"/>
</svg>
