<svg width="31" height="33" viewBox="0 0 31 33" fill="none" xmlns="http://www.w3.org/2000/svg">
<path d="M15.5 19.103C14.0469 19.103 12.7875 17.903 12.7875 16.303C12.7875 14.803 13.95 13.503 15.5 13.503C16.9531 13.503 18.2125 14.703 18.2125 16.303C18.2125 17.803 16.9531 19.103 15.5 19.103Z" fill="white"/>
<path fill-rule="evenodd" clip-rule="evenodd" d="M18.7937 9.50304H12.2063C11.4312 9.60304 11.0438 9.70304 10.7531 9.80304C10.3656 9.90304 10.075 10.103 9.78438 10.403C9.55441 10.6404 9.44575 10.8778 9.31442 11.1647C9.27981 11.2404 9.24353 11.3196 9.20312 11.403C9.18814 11.4494 9.17083 11.4983 9.15229 11.5506C9.05094 11.8364 8.9125 12.2268 8.9125 12.903V19.703C9.00937 20.503 9.10625 20.903 9.20312 21.203C9.3 21.603 9.49375 21.903 9.78438 22.203C10.0143 22.4404 10.2443 22.5526 10.5223 22.6882C10.5956 22.7239 10.6723 22.7613 10.7531 22.803C10.7981 22.8185 10.8454 22.8364 10.896 22.8555C11.1729 22.9601 11.5511 23.103 12.2063 23.103H18.7937C19.5687 23.003 19.9562 22.903 20.2469 22.803C20.6344 22.703 20.925 22.503 21.2156 22.203C21.4456 21.9657 21.5542 21.7283 21.6856 21.4413C21.7202 21.3657 21.7564 21.2865 21.7969 21.203C21.8119 21.1566 21.8292 21.1078 21.8477 21.0555C21.9491 20.7697 22.0875 20.3793 22.0875 19.703V12.903C21.9906 12.103 21.8938 11.703 21.7969 11.403C21.7 11.003 21.5062 10.703 21.2156 10.403C20.9857 10.1657 20.7557 10.0535 20.4777 9.91792C20.4045 9.88222 20.3276 9.84471 20.2469 9.80304C20.2019 9.78757 20.1546 9.7697 20.104 9.75056C19.8271 9.64594 19.4489 9.50304 18.7937 9.50304ZM15.5 12.003C13.175 12.003 11.3344 13.903 11.3344 16.303C11.3344 18.703 13.175 20.603 15.5 20.603C17.825 20.603 19.6656 18.703 19.6656 16.303C19.6656 13.903 17.825 12.003 15.5 12.003ZM20.7312 11.903C20.7312 12.4553 20.2975 12.903 19.7625 12.903C19.2275 12.903 18.7937 12.4553 18.7937 11.903C18.7937 11.3508 19.2275 10.903 19.7625 10.903C20.2975 10.903 20.7312 11.3508 20.7312 11.903Z" fill="white"/>
<path fill-rule="evenodd" clip-rule="evenodd" d="M0 5.30304C0 2.54162 2.16862 0.30304 4.84375 0.30304H26.1562C28.8314 0.30304 31 2.54162 31 5.30304V27.303C31 30.0645 28.8314 32.303 26.1562 32.303H4.84375C2.16862 32.303 0 30.0645 0 27.303V5.30304ZM12.2063 8.00304H18.7937C19.6656 8.10304 20.2469 8.20304 20.7312 8.40304C21.3125 8.70304 21.7 8.90304 22.1844 9.40304C22.6687 9.90304 22.9594 10.403 23.1531 10.903C23.3469 11.403 23.5406 12.003 23.5406 12.903V19.703C23.4437 20.603 23.3469 21.203 23.1531 21.703C22.8625 22.303 22.6687 22.703 22.1844 23.203C21.7 23.703 21.2156 24.003 20.7312 24.203C20.2469 24.403 19.6656 24.603 18.7937 24.603H12.2063C11.3344 24.503 10.7531 24.403 10.2688 24.203C9.6875 23.903 9.3 23.703 8.81563 23.203C8.33125 22.703 8.04063 22.203 7.84688 21.703C7.65313 21.203 7.45937 20.603 7.45937 19.703V12.903C7.55625 12.003 7.65313 11.403 7.84688 10.903C8.1375 10.303 8.33125 9.90304 8.81563 9.40304C9.3 8.90304 9.78438 8.60304 10.2688 8.40304C10.7531 8.20304 11.3344 8.00304 12.2063 8.00304Z" fill="white"/>
</svg>
