<svg width="31" height="33" viewBox="0 0 31 33" fill="none" xmlns="http://www.w3.org/2000/svg">
<path fill-rule="evenodd" clip-rule="evenodd" d="M0 5.30304C0 2.54162 2.16862 0.30304 4.84375 0.30304H26.1562C28.8314 0.30304 31 2.54162 31 5.30304V27.303C31 30.0645 28.8314 32.303 26.1562 32.303H4.84375C2.16862 32.303 0 30.0645 0 27.303V5.30304ZM7.94375 13.603V24.303H11.2375V13.603H7.94375ZM7.75 10.203C7.75 11.303 8.525 12.103 9.59063 12.103C10.6562 12.103 11.4313 11.303 11.4313 10.203C11.4313 9.10304 10.6562 8.30304 9.59063 8.30304C8.62188 8.30304 7.75 9.10304 7.75 10.203ZM19.9563 24.303H23.0563V17.703C23.0563 14.403 21.1187 13.303 19.2781 13.303C17.6312 13.303 16.4688 14.403 16.1781 15.103V13.603H13.0781V24.303H16.3719V18.603C16.3719 17.103 17.3406 16.303 18.3094 16.303C19.2781 16.303 19.9563 16.803 19.9563 18.503V24.303Z" fill="white"/>
</svg>
