<svg width="32" height="33" viewBox="0 0 32 33" fill="none" xmlns="http://www.w3.org/2000/svg">
<path d="M18.6 16.303L14.4 13.903V18.703L18.6 16.303Z" fill="white"/>
<path fill-rule="evenodd" clip-rule="evenodd" d="M0 5.30304C0 2.54162 2.23858 0.30304 5 0.30304H27C29.7614 0.30304 32 2.54162 32 5.30304V27.303C32 30.0645 29.7614 32.303 27 32.303H5C2.23858 32.303 0 30.0645 0 27.303V5.30304ZM22.2 11.003C22.9 11.203 23.4 11.703 23.6 12.403C24 13.703 24 16.303 24 16.303C24 16.303 24 18.903 23.7 20.203C23.5 20.903 23 21.403 22.3 21.603C21 21.903 16 21.903 16 21.903C16 21.903 10.9 21.903 9.7 21.603C9 21.403 8.5 20.903 8.3 20.203C8 18.903 8 16.303 8 16.303C8 16.303 8 13.703 8.2 12.403C8.4 11.703 8.90001 11.203 9.60001 11.003C10.9 10.703 15.9 10.703 15.9 10.703C15.9 10.703 21 10.703 22.2 11.003Z" fill="white"/>
</svg>
